<svg width="32" height="33" viewBox="0 0 32 33" fill="none" xmlns="http://www.w3.org/2000/svg">
<g id="Group">
<g id="Group_2">
<path id="Vector" fill-rule="evenodd" clip-rule="evenodd" d="M9.96523 28.4958C9.96523 30.002 8.74417 31.2231 7.23795 31.2231C5.73174 31.2231 4.51068 30.002 4.51068 28.4958C4.51068 26.9896 5.73174 25.7686 7.23795 25.7686C8.74417 25.7686 9.96523 26.9896 9.96523 28.4958Z" stroke="#1D1D1B" stroke-width="2.25" stroke-linecap="square" stroke-linejoin="round"/>
<path id="Vector_2" fill-rule="evenodd" clip-rule="evenodd" d="M29.0561 28.4958C29.0561 30.002 27.835 31.2231 26.3288 31.2231C24.8226 31.2231 23.6016 30.002 23.6016 28.4958C23.6016 26.9896 24.8226 25.7686 26.3288 25.7686C27.835 25.7686 29.0561 26.9896 29.0561 28.4958Z" stroke="#1D1D1B" stroke-width="2.25" stroke-linecap="square" stroke-linejoin="round"/>
<path id="Vector_3" d="M26.3288 25.7686H7.23793L4.51141 1.22314H-0.541382" stroke="#1D1D1B" stroke-width="2.25" stroke-linejoin="round"/>
<path id="Vector_4" d="M5.11664 6.67773L30.4172 9.4047L29.205 20.3141H6.63179" stroke="#1D1D1B" stroke-width="2.25" stroke-linejoin="round"/>
</g>
</g>
</svg>
