<svg width="8" height="18" viewBox="0 0 8 18" fill="none" xmlns="http://www.w3.org/2000/svg">
<path id="Fill-8" d="M7.90794 10.3902V14.2948C7.90794 16.3779 6.87793 17.4078 4.79409 17.4078H3.52486C1.44101 17.4078 0.411011 16.3779 0.411011 14.2948V3.46785C0.411011 1.384 1.44101 0.354004 3.52486 0.354004H4.77024C6.85408 0.354004 7.86025 1.36016 7.86025 3.444V6.86862H5.34486V3.58785C5.34486 2.91708 5.03408 2.60554 4.38716 2.60554H3.95563C3.28486 2.60554 2.97409 2.91708 2.97409 3.58785V14.1748C2.97409 14.8455 3.28486 15.1571 3.95563 15.1571H4.43486C5.08101 15.1571 5.39255 14.8455 5.39255 14.1748V10.3902H7.90794Z" fill="#010202"/>
</svg>
