<svg width="50" height="50" viewBox="0 0 50 50" fill="none" xmlns="http://www.w3.org/2000/svg">
<path id="Fill-1" d="M26.832 0.322266L24.849 3.27996L22.7759 0.385343L21.3051 3.62842L18.7882 1.10996L17.8651 4.54842L14.969 2.47765L14.6282 6.02227L11.4282 4.45996L11.679 8.0115L8.26512 6.99996L9.09742 10.4615L5.56358 10.0246L6.95204 13.303L3.39435 13.45L5.3005 16.4569L1.81589 17.1861L4.1905 19.8377L0.874347 21.133L3.65665 23.3546L0.599731 25.1807L3.71127 26.9123L0.996655 29.2161L4.34819 30.4177L2.04435 33.133L5.54819 33.7677L3.72512 36.8261L7.28512 36.8715L5.99435 40.19L9.51358 39.6453L8.78742 43.1315L12.169 42.0169L12.0228 45.5746L15.1767 43.9215L15.6151 47.4553L18.4543 45.3077L19.469 48.7207L21.9151 46.133L23.4813 49.3307L25.4651 46.373L27.5374 49.2684L29.009 46.0246L31.5259 48.5438L32.4482 45.1038L35.3443 47.1753L35.6859 43.6307L38.8859 45.193L38.6343 41.6415L42.0482 42.6538L41.2159 39.1907L44.7497 39.6284L43.3613 36.35L46.9197 36.203L45.0128 33.1961L48.4982 32.4677L46.1228 29.8153L49.439 28.5207L46.6567 26.2992L49.7136 24.4723L48.5743 23.8377L48.5736 23.8384L46.6013 22.7407L49.3167 20.4369L45.9651 19.2353L48.269 16.52L44.7651 15.8853L46.5874 12.8269L43.0282 12.7815L44.3182 9.4638L40.7997 10.0077L41.5267 6.5215L38.1451 7.63611L38.2913 4.07765L35.1367 5.7315L34.6982 2.19765L31.8582 4.34534L30.8436 0.932266L28.3982 3.51996L26.832 0.322266Z" fill="#010202"/>
</svg>
