<svg width="9" height="18" viewBox="0 0 9 18" fill="none" xmlns="http://www.w3.org/2000/svg">
<path id="Fill-20" d="M4.60132 2.60579H4.0744C3.40363 2.60579 3.09286 2.91732 3.09286 3.58732V14.175C3.09286 14.845 3.40363 15.1566 4.0744 15.1566H4.60132C5.24825 15.1566 5.55979 14.845 5.55979 14.175V3.58732C5.55979 2.91732 5.24825 2.60579 4.60132 2.60579ZM5.00901 17.4081H3.64363C1.55979 17.4081 0.529785 16.3781 0.529785 14.2942V3.46809C0.529785 1.38425 1.55979 0.354248 3.64363 0.354248H5.00901C7.09209 0.354248 8.12286 1.38425 8.12286 3.46809V14.2942C8.12286 16.3781 7.09209 17.4081 5.00901 17.4081Z" fill="#010202"/>
</svg>
